<svg width="24" height="24" viewBox="0 0 24 24" fill="none" xmlns="http://www.w3.org/2000/svg">
<path d="M5 18.5C4.60218 18.5 4.22064 18.658 3.93934 18.9393C3.65804 19.2206 3.5 19.6022 3.5 20C3.5 20.3978 3.65804 20.7794 3.93934 21.0607C4.22064 21.342 4.60218 21.5 5 21.5H19C19.3978 21.5 19.7794 21.342 20.0607 21.0607C20.342 20.7794 20.5 20.3978 20.5 20C20.5 19.6022 20.342 19.2206 20.0607 18.9393C19.7794 18.658 19.3978 18.5 19 18.5H5ZM17.303 10.944C17.0217 10.6628 16.6402 10.5048 16.2425 10.5048C15.8448 10.5048 15.4633 10.6628 15.182 10.944L13.5 12.625V4C13.5 3.60218 13.342 3.22064 13.0607 2.93934C12.7794 2.65804 12.3978 2.5 12 2.5C11.6022 2.5 11.2206 2.65804 10.9393 2.93934C10.658 3.22064 10.5 3.60218 10.5 4V12.626L8.818 10.944C8.67873 10.8047 8.51339 10.6941 8.3314 10.6187C8.14941 10.5433 7.95435 10.5044 7.75735 10.5044C7.56035 10.5043 7.36527 10.5431 7.18325 10.6184C7.00123 10.6938 6.83583 10.8042 6.6965 10.9435C6.41511 11.2248 6.25697 11.6063 6.25687 12.0041C6.25683 12.2011 6.29558 12.3962 6.37093 12.5782C6.44627 12.7603 6.55673 12.9257 6.696 13.065L10.939 17.308C11.2203 17.5892 11.6018 17.7472 11.9995 17.7472C12.3972 17.7472 12.7787 17.5892 13.06 17.308L17.303 13.065C17.5842 12.7837 17.7422 12.4022 17.7422 12.0045C17.7422 11.6068 17.5842 11.2253 17.303 10.944Z" fill="currentColor"/>
</svg>
