<svg width="32" height="32" viewBox="0 0 32 32" fill="none" xmlns="http://www.w3.org/2000/svg">
<path fill-rule="evenodd" clip-rule="evenodd" d="M21.3227 4.01735C23.1013 2.98135 25.3333 4.26268 25.3333 6.32135V10.6667C25.8586 10.6667 26.3788 10.7701 26.8641 10.9712C27.3494 11.1722 27.7903 11.4668 28.1617 11.8383C28.5332 12.2097 28.8278 12.6506 29.0288 13.1359C29.2299 13.6212 29.3333 14.1414 29.3333 14.6667C29.3333 15.192 29.2299 15.7121 29.0288 16.1974C28.8278 16.6827 28.5332 17.1237 28.1617 17.4951C27.7903 17.8665 27.3494 18.1612 26.8641 18.3622C26.3788 18.5632 25.8586 18.6667 25.3333 18.6667V22.6667C25.3333 24.864 22.8253 26.1187 21.0667 24.8L18.32 22.7387C16.8518 21.6378 15.1423 20.9028 13.3333 20.5947V24.3867C13.3335 25.2583 13.0185 26.1007 12.4465 26.7584C11.8745 27.4161 11.0841 27.8449 10.2208 27.9657C9.35757 28.0866 8.47975 27.8912 7.74916 27.4158C7.01858 26.9404 6.48448 26.2169 6.24532 25.3787L4.15199 18.0507C3.39868 17.1611 2.90844 16.079 2.73637 14.926C2.5643 13.7731 2.71723 12.595 3.17797 11.5242C3.6387 10.4534 4.38898 9.53233 5.34446 8.86454C6.29993 8.19675 7.42274 7.8087 8.58666 7.74401L12.6107 7.52001C14.5795 7.41045 16.4942 6.83513 18.1973 5.84135L21.3227 4.01735ZM7.51199 20.104L8.80932 24.6467C8.87176 24.8666 9.01164 25.0564 9.20315 25.1812C9.39466 25.306 9.62486 25.3573 9.85123 25.3256C10.0776 25.2939 10.2849 25.1814 10.4347 25.0088C10.5846 24.8362 10.667 24.6153 10.6667 24.3867V20.3733L8.58666 20.2573C8.22469 20.2373 7.86513 20.186 7.51199 20.104ZM26.6667 14.6667C26.6667 14.3131 26.5262 13.9739 26.2761 13.7239C26.0261 13.4738 25.6869 13.3333 25.3333 13.3333V16C25.6869 16 26.0261 15.8595 26.2761 15.6095C26.5262 15.3594 26.6667 15.0203 26.6667 14.6667Z" fill="currentColor"/>
</svg>
