<svg fill="none" xmlns="http://www.w3.org/2000/svg">
<path fill-rule="evenodd" clip-rule="evenodd" 
d="M16.06 10.94C16.3409 11.2212 16.4987 11.6025 16.4987 12C16.4987 12.3975 16.3409 12.7787 16.06 13.06L10.404 18.718C10.1226 18.9992 9.741 19.1572 9.34314 19.1571C8.94528 19.157 8.56376 18.9989 8.2825 18.7175C8.00123 18.4361 7.84327 18.0545 7.84337 17.6566C7.84346 17.2588 8.0016 16.8772 8.283 16.596L12.879 12L8.283 7.40397C8.00962 7.1212 7.85825 6.74237 7.86148 6.34907C7.86471 5.95577 8.02229 5.57947 8.30027 5.30123C8.57825 5.02298 8.9544 4.86505 9.34769 4.86145C9.74099 4.85785 10.12 5.00887 10.403 5.28197L16.061 10.939L16.06 10.94Z" fill="currentColor"/>
</svg>
