<svg width="32" height="32" viewBox="0 0 32 32" fill="none" xmlns="http://www.w3.org/2000/svg">
<path d="M26.6666 23.3337C27.1802 23.3339 27.674 23.5318 28.0458 23.8862C28.4175 24.2407 28.6386 24.7245 28.6633 25.2375C28.688 25.7506 28.5143 26.2534 28.1784 26.6419C27.8424 27.0304 27.3698 27.2748 26.8586 27.3243L26.6666 27.3337H5.33325C4.81963 27.3334 4.32579 27.1356 3.95407 26.7811C3.58235 26.4267 3.36124 25.9428 3.33655 25.4298C3.31187 24.9167 3.48551 24.4139 3.82149 24.0254C4.15746 23.6369 4.63003 23.3926 5.14125 23.343L5.33325 23.3337H26.6666ZM26.6666 14.0003C27.197 14.0003 27.7057 14.211 28.0808 14.5861C28.4559 14.9612 28.6666 15.4699 28.6666 16.0003C28.6666 16.5308 28.4559 17.0395 28.0808 17.4145C27.7057 17.7896 27.197 18.0003 26.6666 18.0003H5.33325C4.80282 18.0003 4.29411 17.7896 3.91904 17.4145C3.54397 17.0395 3.33325 16.5308 3.33325 16.0003C3.33325 15.4699 3.54397 14.9612 3.91904 14.5861C4.29411 14.211 4.80282 14.0003 5.33325 14.0003H26.6666ZM26.6666 4.66699C27.197 4.66699 27.7057 4.87771 28.0808 5.25278C28.4559 5.62785 28.6666 6.13656 28.6666 6.66699C28.6666 7.19743 28.4559 7.70613 28.0808 8.08121C27.7057 8.45628 27.197 8.66699 26.6666 8.66699H5.33325C4.80282 8.66699 4.29411 8.45628 3.91904 8.08121C3.54397 7.70613 3.33325 7.19743 3.33325 6.66699C3.33325 6.13656 3.54397 5.62785 3.91904 5.25278C4.29411 4.87771 4.80282 4.66699 5.33325 4.66699H26.6666Z" fill="currentColor"/>
</svg>
