<svg width="32" height="32" viewBox="0 0 32 32" fill="none" xmlns="http://www.w3.org/2000/svg">
<g clip-path="url(#clip0_1103_7422)">
<path d="M20 25.3337C20.0003 26.0064 19.7462 26.6544 19.2887 27.1477C18.8313 27.641 18.2042 27.9432 17.5334 27.9937L17.3334 28.0003H14.6667C13.9939 28.0005 13.346 27.7465 12.8526 27.289C12.3593 26.8315 12.0572 26.2045 12.0067 25.5337L12 25.3337H20ZM16 2.66699C18.42 2.66695 20.7454 3.60685 22.4857 5.28843C24.226 6.97 25.2451 9.26178 25.328 11.6803L25.3334 12.0003V17.019L27.7627 21.8777C27.8687 22.0897 27.9218 22.3242 27.9173 22.5612C27.9129 22.7982 27.8511 23.0306 27.7372 23.2384C27.6233 23.4463 27.4607 23.6235 27.2634 23.7548C27.066 23.8861 26.8398 23.9676 26.604 23.9923L26.4507 24.0003H5.54938C5.31226 24.0004 5.07866 23.943 4.8686 23.833C4.65854 23.723 4.47828 23.5637 4.34326 23.3688C4.20825 23.1739 4.12251 22.9491 4.09338 22.7138C4.06426 22.4785 4.09262 22.2396 4.17604 22.0177L4.23738 21.8777L6.66671 17.019V12.0003C6.66671 9.52497 7.65004 7.151 9.40038 5.40066C11.1507 3.65032 13.5247 2.66699 16 2.66699Z" fill="currentColor"/>
</g>
<defs>
<clipPath id="clip0_1103_7422">
<rect width="32" height="32"/>
</clipPath>
</defs>
</svg>
