<svg width="96" height="96" viewBox="0 0 96 96" fill="none" xmlns="http://www.w3.org/2000/svg">
<path fill-rule="evenodd" clip-rule="evenodd" d="M46.0004 16.0009C35.4044 16.0009 26.9564 25.5209 28.1084 36.0009C28.2151 36.9713 27.9668 37.9475 27.4094 38.7491C26.8521 39.5506 26.0233 40.1231 25.0764 40.3609C22.2481 41.0857 19.7808 42.816 18.136 45.2283C16.4913 47.6406 15.7817 50.5695 16.1401 53.467C16.4985 56.3646 17.9003 59.0323 20.0833 60.9712C22.2662 62.91 25.0808 63.9871 28.0004 64.0009H32.0004C33.0613 64.0009 34.0787 64.4223 34.8288 65.1725C35.579 65.9226 36.0004 66.94 36.0004 68.0009C36.0004 69.0617 35.579 70.0792 34.8288 70.8293C34.0787 71.5795 33.0613 72.0009 32.0004 72.0009H28.0004C23.4033 72.0039 18.9454 70.4231 15.3772 67.5245C11.809 64.626 9.34819 60.5867 8.40908 56.0865C7.46998 51.5863 8.10985 46.8999 10.221 42.8162C12.3322 38.7325 15.7857 35.5007 20.0004 33.6649C20.0727 27.6006 22.2626 21.7524 26.1912 17.1322C30.1199 12.512 35.54 9.41047 41.5138 8.36437C47.4876 7.31827 53.6392 8.39338 58.904 11.4037C64.1689 14.414 68.2158 19.17 70.3444 24.8489C75.9416 26.3925 80.7898 29.9122 83.991 34.7561C87.1922 39.6 88.5296 45.4399 87.7554 51.1942C86.9812 56.9485 84.1479 62.2273 79.7802 66.0528C75.4126 69.8784 69.8065 71.9915 64.0004 72.0009C62.9395 72.0009 61.9221 71.5795 61.172 70.8293C60.4218 70.0792 60.0004 69.0617 60.0004 68.0009C60.0004 66.94 60.4218 65.9226 61.172 65.1725C61.9221 64.4223 62.9395 64.0009 64.0004 64.0009C68.0205 64.0069 71.8956 62.4994 74.8548 59.7783C77.8139 57.0571 79.6403 53.3217 79.9705 49.3152C80.3007 45.3086 79.1106 41.3246 76.6369 38.1557C74.1632 34.9867 70.5873 32.8651 66.6204 32.2129C65.8566 32.0866 65.1451 31.7435 64.5707 31.2244C63.9963 30.7053 63.5831 30.0321 63.3804 29.2849C62.3433 25.4699 60.0796 22.1022 56.9386 19.7015C53.7976 17.3007 49.9538 16.0003 46.0004 16.0009ZM52.0004 49.6649L57.1724 54.8329C57.5443 55.2043 57.9857 55.4987 58.4714 55.6995C58.9571 55.9003 59.4777 56.0035 60.0032 56.0031C60.5288 56.0027 61.0492 55.8988 61.5346 55.6974C62.02 55.4959 62.461 55.2008 62.8324 54.8289C63.2038 54.457 63.4983 54.0156 63.6991 53.5299C63.8998 53.0441 64.003 52.5236 64.0026 51.9981C64.0023 51.4725 63.8984 50.9521 63.6969 50.4667C63.4954 49.9813 63.2003 49.5403 62.8284 49.1689L51.5324 37.8929C50.595 36.9574 49.3248 36.4319 48.0004 36.4319C46.6761 36.4319 45.4058 36.9574 44.4684 37.8929L33.1724 49.1729C32.4218 49.9229 32 50.9404 31.9996 52.0015C31.9992 53.0625 32.4204 54.0803 33.1704 54.8309C33.9204 55.5814 34.9379 56.0033 35.999 56.0037C37.0601 56.0041 38.0778 55.5829 38.8284 54.8329L44.0004 49.6649V84.0009C44.0004 85.0618 44.4218 86.0792 45.172 86.8293C45.9221 87.5795 46.9395 88.0009 48.0004 88.0009C49.0613 88.0009 50.0787 87.5795 50.8288 86.8293C51.579 86.0792 52.0004 85.0618 52.0004 84.0009V49.6649Z" fill="#30303B"/>
</svg>
