<svg width="32" height="32" viewBox="0 0 32 32" fill="none" xmlns="http://www.w3.org/2000/svg">
<g clip-path="url(#clip0_72_2565)">
<path d="M28 16V25.3333C28 26.0406 27.719 26.7189 27.219 27.219C26.7189 27.719 26.0406 28 25.3333 28H6.66667C5.95942 28 5.28115 27.719 4.78105 27.219C4.28095 26.7189 4 26.0406 4 25.3333V16H28ZM21.3333 4C21.687 4 22.0261 4.14048 22.2761 4.39052C22.5262 4.64057 22.6667 4.97971 22.6667 5.33333V6.66667H25.3333C26.0406 6.66667 26.7189 6.94762 27.219 7.44772C27.719 7.94781 28 8.62609 28 9.33333V13.3333H4V9.33333C4 8.62609 4.28095 7.94781 4.78105 7.44772C5.28115 6.94762 5.95942 6.66667 6.66667 6.66667H9.33333V5.33333C9.33333 4.97971 9.47381 4.64057 9.72386 4.39052C9.97391 4.14048 10.313 4 10.6667 4C11.0203 4 11.3594 4.14048 11.6095 4.39052C11.8595 4.64057 12 4.97971 12 5.33333V6.66667H20V5.33333C20 4.97971 20.1405 4.64057 20.3905 4.39052C20.6406 4.14048 20.9797 4 21.3333 4Z" fill="currentColor"/>
</g>
<defs>
<clipPath id="clip0_72_2565">
<rect width="32" height="32" fill="white"/>
</clipPath>
</defs>
</svg>
