<svg width="32" height="32" viewBox="0 0 32 32" fill="none" xmlns="http://www.w3.org/2000/svg">
<g clip-path="url(#clip0_72_2300)">
<path d="M29.3333 13.3333V22.6666C29.3333 23.7275 28.9119 24.7449 28.1617 25.4951C27.4116 26.2452 26.3942 26.6666 25.3333 26.6666H6.66666C5.60579 26.6666 4.58837 26.2452 3.83823 25.4951C3.08808 24.7449 2.66666 23.7275 2.66666 22.6666V13.3333H29.3333ZM24 18.6666H20C19.6464 18.6666 19.3072 18.8071 19.0572 19.0572C18.8071 19.3072 18.6667 19.6464 18.6667 20C18.6667 20.3536 18.8071 20.6927 19.0572 20.9428C19.3072 21.1928 19.6464 21.3333 20 21.3333H24C24.3536 21.3333 24.6928 21.1928 24.9428 20.9428C25.1928 20.6927 25.3333 20.3536 25.3333 20C25.3333 19.6464 25.1928 19.3072 24.9428 19.0572C24.6928 18.8071 24.3536 18.6666 24 18.6666ZM25.3333 5.33331C26.3942 5.33331 27.4116 5.75474 28.1617 6.50489C28.9119 7.25503 29.3333 8.27245 29.3333 9.33331V10.6666H2.66666V9.33331C2.66666 8.27245 3.08808 7.25503 3.83823 6.50489C4.58837 5.75474 5.60579 5.33331 6.66666 5.33331H25.3333Z" fill="currentColor"/>
</g>
<defs>
<clipPath id="clip0_72_2300">
<rect width="32" height="32" fill="white"/>
</clipPath>
</defs>
</svg>
