<svg width="32" height="32" viewBox="0 0 32 32" fill="none" xmlns="http://www.w3.org/2000/svg">
<g clip-path="url(#clip0_72_2768)">
<path fill-rule="evenodd" clip-rule="evenodd" d="M4 8C4 6.93913 4.42143 5.92172 5.17157 5.17157C5.92172 4.42143 6.93913 4 8 4H24C25.0609 4 26.0783 4.42143 26.8284 5.17157C27.5786 5.92172 28 6.93913 28 8V24C28 25.0609 27.5786 26.0783 26.8284 26.8284C26.0783 27.5786 25.0609 28 24 28H8C6.93913 28 5.92172 27.5786 5.17157 26.8284C4.42143 26.0783 4 25.0609 4 24V8ZM18.6667 18.6667C18.6667 18.313 18.8071 17.9739 19.0572 17.7239C19.3072 17.4738 19.6464 17.3333 20 17.3333H25.3333V8C25.3333 7.64638 25.1929 7.30724 24.9428 7.05719C24.6928 6.80714 24.3536 6.66667 24 6.66667H8C7.64638 6.66667 7.30724 6.80714 7.05719 7.05719C6.80714 7.30724 6.66667 7.64638 6.66667 8V17.3333H12C12.3536 17.3333 12.6928 17.4738 12.9428 17.7239C13.1929 17.9739 13.3333 18.313 13.3333 18.6667C13.3333 19.3739 13.6143 20.0522 14.1144 20.5523C14.6145 21.0524 15.2928 21.3333 16 21.3333C16.7072 21.3333 17.3855 21.0524 17.8856 20.5523C18.3857 20.0522 18.6667 19.3739 18.6667 18.6667Z" fill="currentColor"/>
</g>
<defs>
<clipPath id="clip0_72_2768">
<rect width="32" height="32" fill="white"/>
</clipPath>
</defs>
</svg>
