<svg width="32" height="32" viewBox="0 0 32 32" fill="none" xmlns="http://www.w3.org/2000/svg">
<g clip-path="url(#clip0_72_3490)">
<path d="M16 3.33334C16.5304 3.33334 17.0391 3.54406 17.4142 3.91913C17.7893 4.2942 18 4.80291 18 5.33334C18 5.86378 17.7893 6.37248 17.4142 6.74756C17.0391 7.12263 16.5304 7.33334 16 7.33334H9.33333C9.15652 7.33334 8.98695 7.40358 8.86193 7.52861C8.7369 7.65363 8.66666 7.8232 8.66666 8.00001V24C8.66666 24.1768 8.7369 24.3464 8.86193 24.4714C8.98695 24.5964 9.15652 24.6667 9.33333 24.6667H15.3333C15.8638 24.6667 16.3725 24.8774 16.7475 25.2525C17.1226 25.6275 17.3333 26.1362 17.3333 26.6667C17.3333 27.1971 17.1226 27.7058 16.7475 28.0809C16.3725 28.456 15.8638 28.6667 15.3333 28.6667H9.33333C8.09565 28.6667 6.90867 28.175 6.0335 27.2998C5.15833 26.4247 4.66666 25.2377 4.66666 24V8.00001C4.66666 6.76233 5.15833 5.57535 6.0335 4.70018C6.90867 3.82501 8.09565 3.33334 9.33333 3.33334H16ZM24.08 10.8133L27.852 14.5867C28.2265 14.9617 28.4369 15.47 28.4369 16C28.4369 16.53 28.2265 17.0383 27.852 17.4133L24.0813 21.1867C23.7061 21.5619 23.1973 21.7727 22.6667 21.7727C22.1361 21.7727 21.6272 21.5619 21.252 21.1867C20.8768 20.8115 20.666 20.3026 20.666 19.772C20.666 19.2414 20.8768 18.7325 21.252 18.3573L21.6093 18H16C15.4696 18 14.9609 17.7893 14.5858 17.4142C14.2107 17.0392 14 16.5304 14 16C14 15.4696 14.2107 14.9609 14.5858 14.5858C14.9609 14.2107 15.4696 14 16 14H21.6093L21.252 13.6427C21.0663 13.4569 20.919 13.2364 20.8186 12.9937C20.7181 12.751 20.6664 12.4909 20.6665 12.2282C20.6666 11.9655 20.7184 11.7055 20.8189 11.4628C20.9195 11.2202 21.0669 10.9997 21.2527 10.814C21.4384 10.6283 21.659 10.481 21.9017 10.3806C22.1444 10.2801 22.4045 10.2284 22.6671 10.2285C22.9298 10.2286 23.1899 10.2804 23.4325 10.3809C23.6752 10.4815 23.8956 10.6289 24.0813 10.8147L24.08 10.8133Z" fill="#0E0E0E"/>
</g>
<defs>
<clipPath id="clip0_72_3490">
<rect width="32" height="32" fill="white"/>
</clipPath>
</defs>
</svg>
