<svg width="32" height="32" viewBox="0 0 32 32" fill="none" xmlns="http://www.w3.org/2000/svg">
<g clip-path="url(#clip0_72_3185)">
<path d="M2.66666 6.66667C2.66666 5.95942 2.94762 5.28115 3.44771 4.78105C3.94781 4.28095 4.62609 4 5.33333 4H12.6933C13.093 4.00005 13.4876 4.08994 13.8478 4.26304C14.2081 4.43613 14.5249 4.68799 14.7747 5L16.6413 7.33333H26.6667C27.3739 7.33333 28.0522 7.61428 28.5523 8.11438C29.0524 8.61448 29.3333 9.29276 29.3333 10V25.3333C29.3333 26.0406 29.0524 26.7189 28.5523 27.219C28.0522 27.719 27.3739 28 26.6667 28H5.33333C4.62609 28 3.94781 27.719 3.44771 27.219C2.94762 26.7189 2.66666 26.0406 2.66666 25.3333V6.66667Z" fill="currentColor"/>
</g>
<defs>
<clipPath id="clip0_72_3185">
<rect width="32" height="32" fill="white"/>
</clipPath>
</defs>
</svg>
