<svg viewBox="0 0 32 32" xmlns="http://www.w3.org/2000/svg">
<g clip-path="url(#clip0_67_2954)">
<path fill-rule="evenodd" clip-rule="evenodd" d="M14.3626 3.58401C14.8308 3.21986 15.4069 3.02216 16 3.02216C16.593 3.02216 17.1692 3.21986 17.6373 3.58401L28.816 12.2773C29.82 13.06 29.2653 14.6667 27.996 14.6667H26.6666V25.3333C26.6666 26.0406 26.3857 26.7189 25.8856 27.219C25.3855 27.7191 24.7072 28 24 28H7.99998C7.29273 28 6.61445 27.7191 6.11436 27.219C5.61426 26.7189 5.33331 26.0406 5.33331 25.3333V14.6667H4.00398C2.73331 14.6667 2.18131 13.0587 3.18398 12.2787L14.3626 3.58401Z" fill="currentColor"/>
</g>
<defs>
<clipPath id="clip0_67_2954">
<rect width="32" height="32" />
</clipPath>
</defs>
</svg>
