<svg width="32" height="32" viewBox="0 0 32 32" fill="none" xmlns="http://www.w3.org/2000/svg">
<path d="M7.69151 22.7751L7.69148 22.7751L6.74884 23.7178C6.54575 23.9209 6.43166 24.1964 6.43166 24.4837C6.43166 24.7709 6.54573 25.0464 6.74879 25.2495C6.74881 25.2496 6.74883 25.2496 6.74884 25.2496M7.69151 22.7751L8.45737 25.4263C8.20734 25.6763 7.86826 25.8167 7.51471 25.8167C7.16115 25.8167 6.82208 25.6763 6.57204 25.4263L6.74884 25.2496M7.69151 22.7751L7.69453 22.772C7.79446 22.6686 7.914 22.586 8.04618 22.5292C8.17835 22.4725 8.3205 22.4426 8.46435 22.4413C8.60819 22.4401 8.75084 22.4675 8.88398 22.522C9.01712 22.5764 9.13807 22.6569 9.23979 22.7586C9.34151 22.8603 9.42195 22.9813 9.47642 23.1144C9.53089 23.2475 9.5583 23.3902 9.55705 23.534C9.5558 23.6779 9.52591 23.82 9.46914 23.9522C9.41236 24.0844 9.32983 24.2039 9.22636 24.3039L9.22634 24.3038L9.22326 24.3069L8.28062 25.2495C8.07747 25.4526 7.80197 25.5667 7.51471 25.5667C7.22747 25.5667 6.95199 25.4527 6.74884 25.2496M7.69151 22.7751L6.74884 25.2496M15.2803 6.14256C15.4786 6.31888 15.7347 6.4163 16 6.41634L15.2803 6.14256ZM15.2803 6.14256C15.0837 5.96775 14.9575 5.72743 14.9251 5.46652M15.2803 6.14256L14.9251 5.46652M14.9251 5.46652L14.9167 5.32554V3.99995C14.917 3.72383 15.0227 3.45825 15.2123 3.25747C15.4018 3.05669 15.6609 2.93587 15.9366 2.91968C16.2122 2.9035 16.4836 2.99318 16.6954 3.1704C16.9053 3.34614 17.0409 3.5948 17.0749 3.8663L17.0834 4.00715V5.33301C17.0834 5.62033 16.9692 5.89588 16.7661 6.09904C16.5629 6.3022 16.2874 6.41633 16.0001 6.41634L14.9251 5.46652ZM23.7195 6.74845L23.7195 6.74848L23.7225 6.74535C23.8225 6.64188 23.942 6.55935 24.0742 6.50257C24.2063 6.4458 24.3485 6.41591 24.4923 6.41466C24.6362 6.41341 24.7788 6.44082 24.912 6.49529C25.0451 6.54977 25.1661 6.63021 25.2678 6.73192C25.3695 6.83364 25.4499 6.9546 25.5044 7.08773C25.5589 7.22087 25.5863 7.36353 25.5851 7.50737C25.5838 7.65121 25.5539 7.79337 25.4971 7.92554C25.4404 8.05771 25.3578 8.17725 25.2544 8.27719L25.2543 8.27716L25.2513 8.28023L24.3086 9.22287C24.1055 9.42596 23.83 9.54006 23.5427 9.54006C23.2554 9.54006 22.9799 9.42596 22.7768 9.22287C22.5737 9.01972 22.4597 8.74425 22.4597 8.45701C22.4597 8.16976 22.5737 7.89427 22.7768 7.69112C22.7768 7.69111 22.7768 7.6911 22.7768 7.69109L23.7195 6.74845ZM15.1774 29.083H15.1773C14.5882 29.0831 14.0193 28.8681 13.5776 28.4782L13.4122 28.6656L13.5776 28.4782C13.1359 28.0884 12.8518 27.5506 12.7788 26.966L12.2721 22.9127L12.2566 22.7888L12.1483 22.7267C10.6659 21.8777 9.50554 20.5626 8.8477 18.986C8.18985 17.4094 8.07136 15.6597 8.51065 14.0088C8.94995 12.3579 9.92241 10.8984 11.2768 9.85727C12.6312 8.81613 14.2917 8.25167 16 8.25167C17.7084 8.25167 19.3688 8.81613 20.7233 9.85727C22.0777 10.8984 23.0501 12.3579 23.4894 14.0088C23.9287 15.6597 23.8102 17.4094 23.1524 18.986C22.4945 20.5626 21.3342 21.8777 19.8518 22.7267L19.7435 22.7888L19.728 22.9127L19.2213 26.966C19.1483 27.5506 18.8642 28.0884 18.4225 28.4782C17.9808 28.8681 17.4119 29.0831 16.8228 29.083H16.8227L15.1774 29.083ZM14.9293 26.6973L14.9567 26.9163H15.1774L16.8227 26.9163H17.0434L17.0708 26.6973L17.4041 24.0307L17.4392 23.7497H17.156L14.844 23.7497H14.5608L14.596 24.0307L14.9293 26.6973ZM8.4504 9.52391C8.16704 9.52638 7.89403 9.41772 7.68987 9.22128L6.75043 8.28185C6.554 8.07769 6.44534 7.80467 6.4478 7.52131C6.45027 7.23726 6.5642 6.96555 6.76506 6.76469C6.96592 6.56383 7.23763 6.4499 7.52168 6.44743C7.80504 6.44497 8.07805 6.55363 8.28221 6.75007L9.22165 7.6895C9.41808 7.89366 9.52674 8.16668 9.52428 8.45004C9.52181 8.73408 9.40788 9.0058 9.20702 9.20666C9.00616 9.40751 8.73445 9.52145 8.4504 9.52391ZM26.6667 17.083C26.3794 17.083 26.1038 16.9689 25.9007 16.7657C25.6975 16.5625 25.5834 16.287 25.5834 15.9997C25.5834 15.7124 25.6975 15.4368 25.9007 15.2336C26.1038 15.0305 26.3794 14.9163 26.6667 14.9163H28C28.2874 14.9163 28.5629 15.0305 28.7661 15.2336C28.9692 15.4368 29.0834 15.7124 29.0834 15.9997C29.0834 16.287 28.9692 16.5625 28.7661 16.7657C28.5629 16.9689 28.2874 17.083 28 17.083H26.6667ZM4.00004 17.083C3.71272 17.083 3.43717 16.9689 3.234 16.7657C3.03084 16.5625 2.91671 16.287 2.91671 15.9997C2.91671 15.7124 3.03084 15.4368 3.234 15.2336C3.43717 15.0305 3.71272 14.9163 4.00004 14.9163L5.33337 14.9163C5.62069 14.9163 5.89624 15.0305 6.09941 15.2336C6.30257 15.4368 6.41671 15.7124 6.41671 15.9997C6.41671 16.287 6.30257 16.5625 6.09941 16.7657C5.89624 16.9689 5.62069 17.083 5.33337 17.083L4.00004 17.083ZM24.4723 25.5376C24.1922 25.5419 23.9214 25.4376 23.7166 25.2467L22.7798 24.3099C22.589 24.105 22.4849 23.8341 22.4894 23.554C22.494 23.2727 22.6079 23.0042 22.8069 22.8053C23.0059 22.6064 23.2745 22.4928 23.5558 22.4884C23.8359 22.4841 24.1067 22.5884 24.3115 22.7794L25.2483 23.7161C25.4391 23.921 25.5432 24.1919 25.5386 24.472C25.5341 24.7533 25.4202 25.0218 25.2212 25.2207C25.0222 25.4196 24.7536 25.5332 24.4723 25.5376Z" fill="#EDD92E" stroke="black" stroke-width="0.5"/>
</svg>
