<svg width="24" height="24" viewBox="0 0 24 24" fill="none" xmlns="http://www.w3.org/2000/svg">
<g clip-path="url(#clip0_1190_17736)">
<path d="M15.06 5.28338L20.717 10.9404C20.9979 11.2216 21.1557 11.6029 21.1557 12.0004C21.1557 12.3979 20.9979 12.7791 20.717 13.0604L15.061 18.7184C14.7796 18.9998 14.398 19.1579 14 19.1579C13.602 19.1579 13.2204 18.9998 12.939 18.7184C12.6576 18.437 12.4995 18.0553 12.4995 17.6574C12.4995 17.2594 12.6576 16.8778 12.939 16.5964L16.035 13.5004H4.5C4.10218 13.5004 3.72064 13.3423 3.43934 13.061C3.15804 12.7797 3 12.3982 3 12.0004C3 11.6026 3.15804 11.221 3.43934 10.9397C3.72064 10.6584 4.10218 10.5004 4.5 10.5004H16.035L12.94 7.40438C12.6587 7.12298 12.5008 6.74138 12.5009 6.34352C12.501 5.94567 12.6591 5.56414 12.9405 5.28288C13.2219 5.00161 13.6035 4.84366 14.0014 4.84375C14.3992 4.84384 14.7807 5.00198 15.062 5.28338H15.06Z" fill="currentColor"/>
</g>
<defs>
<clipPath id="clip0_1190_17736">
<rect width="24" height="24" fill="currentColor"/>
</clipPath>
</defs>
</svg>
