<svg width="32" height="32" viewBox="0 0 32 32" fill="none" xmlns="http://www.w3.org/2000/svg">
<path d="M25.9947 18.644L28.616 23.1854C28.7239 23.3723 28.7848 23.5827 28.7935 23.7984C28.8022 24.0141 28.7585 24.2287 28.6661 24.4237C28.5736 24.6188 28.4353 24.7886 28.2628 24.9184C28.0904 25.0483 27.889 25.1344 27.676 25.1694L27.5253 25.184L27.376 25.1827L23.4653 24.9294L21.728 28.444C21.6337 28.6343 21.4953 28.7994 21.3244 28.9255C21.1534 29.0515 20.9549 29.135 20.7452 29.1689C20.5355 29.2028 20.3208 29.1862 20.1188 29.1204C19.9168 29.0546 19.7335 28.9416 19.584 28.7907L19.4747 28.6654L19.3787 28.5187L16.7547 23.976C18.6018 23.8606 20.3972 23.3191 22.0002 22.3941C23.6033 21.469 24.9704 20.1855 25.9947 18.644ZM15.24 23.976L12.6187 28.52C12.5124 28.7041 12.3638 28.8602 12.1851 28.9752C12.0064 29.0903 11.8028 29.161 11.5912 29.1814C11.3797 29.2019 11.1663 29.1716 10.9688 29.0929C10.7714 29.0143 10.5956 28.8897 10.456 28.7294L10.3547 28.596L10.2693 28.444L8.53067 24.9307L4.62267 25.184C4.4074 25.1979 4.19198 25.1593 3.99487 25.0717C3.79775 24.9841 3.62481 24.85 3.49085 24.6809C3.3569 24.5118 3.26592 24.3128 3.22572 24.1009C3.18551 23.8889 3.19728 23.6704 3.26 23.464L3.31333 23.3214L3.38 23.188L6.004 18.6427C7.02757 20.1842 8.39397 21.4679 9.99626 22.3934C11.5986 23.3188 13.3933 23.8597 15.24 23.976ZM16 2.66669L16.32 2.67202C18.7386 2.75499 21.0303 3.7741 22.7119 5.51438C24.3935 7.25466 25.3334 9.58005 25.3333 12L25.3293 12.2574L25.32 12.5134L25.296 12.84L25.2613 13.1627L25.2293 13.4C25.1416 13.9755 25.0001 14.5416 24.8067 15.0907L24.652 15.5014L24.448 15.9654C23.6932 17.5733 22.4952 18.9326 20.9948 19.8834C19.4944 20.8343 17.7538 21.3373 15.9774 21.3334C14.2011 21.3294 12.4628 20.8188 10.9666 19.8613C9.47035 18.9038 8.27839 17.5393 7.53067 15.928L7.35733 15.532L7.288 15.3547L7.18133 15.0654L7.05467 14.6734C7.00943 14.5215 6.96808 14.3686 6.93067 14.2147L6.85067 13.8534L6.78533 13.492L6.75867 13.3067L6.70667 12.876L6.67467 12.3894L6.66667 12C6.66663 9.58005 7.60652 7.25466 9.2881 5.51438C10.9697 3.7741 13.2614 2.75499 15.68 2.67202L16 2.66669Z" fill="currentColor"/>
</svg>
