<svg width="32" height="32" viewBox="0 0 32 32" fill="none" xmlns="http://www.w3.org/2000/svg">
<g clip-path="url(#clip0_72_3326)">
<path d="M25.3333 16.376V18.6667C25.3333 21.142 24.35 23.516 22.5997 25.2663C20.8493 27.0167 18.4754 28 16 28C13.5246 28 11.1507 27.0167 9.40034 25.2663C7.65 23.516 6.66667 21.142 6.66667 18.6667V16.376L15.1453 20.3853C15.4126 20.5116 15.7044 20.5771 16 20.5771C16.2956 20.5771 16.5875 20.5116 16.8547 20.3853L25.3333 16.376ZM16.8547 3.61598L28.9613 9.34132C29.94 9.80265 30.064 11.0773 29.3333 11.7453V17.3333C29.3333 17.6869 29.1929 18.0261 28.9428 18.2761C28.6928 18.5262 28.3536 18.6667 28 18.6667C27.6464 18.6667 27.3072 18.5262 27.0572 18.2761C26.8071 18.0261 26.6667 17.6869 26.6667 17.3333V13.08L16.8547 17.72C16.5875 17.8463 16.2956 17.9118 16 17.9118C15.7044 17.9118 15.4126 17.8463 15.1453 17.72L3.03867 11.9933C2.7878 11.8744 2.57583 11.6867 2.4274 11.4521C2.27897 11.2175 2.20017 10.9456 2.20017 10.668C2.20017 10.3904 2.27897 10.1184 2.4274 9.88383C2.57583 9.64922 2.7878 9.46156 3.03867 9.34265L15.1453 3.61732C15.4126 3.49101 15.7044 3.42551 16 3.42551C16.2956 3.42551 16.5875 3.49101 16.8547 3.61732V3.61598Z" fill="currentColor"/>
</g>
<defs>
<clipPath id="clip0_72_3326">
<rect width="32" height="32" fill="white"/>
</clipPath>
</defs>
</svg>
