<svg width="32" height="32" viewBox="0 0 32 32" fill="none" xmlns="http://www.w3.org/2000/svg">
<g clip-path="url(#clip0_72_3717)">
<path fill-rule="evenodd" clip-rule="evenodd" d="M13.2867 3.74532C13.0211 3.5511 12.712 3.42488 12.3863 3.37769C12.0607 3.33051 11.7285 3.3638 11.4187 3.47466C9.97014 4.0053 8.62481 4.78353 7.44266 5.77466C7.1922 5.9873 6.99758 6.25802 6.8758 6.56318C6.75402 6.86833 6.70877 7.19866 6.744 7.52532C6.844 8.52932 6.66666 9.49866 6.184 10.3333C5.70266 11.1693 4.95066 11.808 4.03066 12.2227C3.72979 12.3559 3.46615 12.5609 3.26277 12.8196C3.05939 13.0783 2.92248 13.3828 2.864 13.7067C2.60063 15.2242 2.60063 16.7758 2.864 18.2933C2.988 19.0093 3.47733 19.528 4.03066 19.7787C4.95066 20.192 5.70266 20.832 6.18533 21.6667C6.66666 22.5027 6.844 23.4707 6.744 24.4747C6.684 25.0773 6.88666 25.76 7.44266 26.2253C8.62479 27.2165 9.97013 27.9947 11.4187 28.5253C11.7283 28.6361 12.0603 28.6693 12.3857 28.6221C12.7111 28.5749 13.0199 28.4488 13.2853 28.2547C14.1053 27.6653 15.0347 27.3333 16 27.3333C16.9653 27.3333 17.8933 27.6653 18.7133 28.2547C19.2067 28.6093 19.9 28.7747 20.5813 28.5253C22.0299 27.9947 23.3752 27.2164 24.5573 26.2253C25.1133 25.76 25.3173 25.0787 25.256 24.4747C25.156 23.4707 25.332 22.5013 25.816 21.6667C26.2973 20.8307 27.0493 20.1933 27.9693 19.7787C28.5213 19.528 29.012 19.0093 29.136 18.2933C29.3993 16.7758 29.3993 15.2242 29.136 13.7067C29.0775 13.3828 28.9406 13.0783 28.7372 12.8196C28.5338 12.5609 28.2702 12.3559 27.9693 12.2227C27.0493 11.808 26.2973 11.1693 25.8147 10.3333C25.332 9.49866 25.156 8.52932 25.256 7.52532C25.2911 7.19867 25.2458 6.86838 25.124 6.56324C25.0023 6.2581 24.8077 5.98738 24.5573 5.77466C23.3752 4.78353 22.0299 4.0053 20.5813 3.47466C20.2717 3.36403 19.9397 3.33086 19.6144 3.37804C19.289 3.42522 18.9801 3.55132 18.7147 3.74532C17.8933 4.33332 16.964 4.66666 16 4.66666C15.036 4.66666 14.1067 4.33466 13.2867 3.74532ZM12 16C12 14.9391 12.4214 13.9217 13.1716 13.1716C13.9217 12.4214 14.9391 12 16 12C17.0609 12 18.0783 12.4214 18.8284 13.1716C19.5786 13.9217 20 14.9391 20 16C20 17.0609 19.5786 18.0783 18.8284 18.8284C18.0783 19.5786 17.0609 20 16 20C14.9391 20 13.9217 19.5786 13.1716 18.8284C12.4214 18.0783 12 17.0609 12 16Z" fill="currentColor"/>
</g>
<defs>
<clipPath id="clip0_72_3717">
<rect width="32" height="32" fill="white"/>
</clipPath>
</defs>
</svg>
