<svg width="32" height="32" viewBox="0 0 32 32" fill="none" xmlns="http://www.w3.org/2000/svg">
<g clip-path="url(#clip0_72_3759)">
<path d="M21.3333 18.6667C23.0513 18.6668 24.7029 19.33 25.9437 20.5182C27.1845 21.7064 27.9188 23.3277 27.9933 25.044L28 25.3333V26.6667C28.0002 27.3394 27.7461 27.9874 27.2887 28.4807C26.8312 28.974 26.2042 29.2762 25.5333 29.3267L25.3333 29.3333H6.66667C5.9939 29.3335 5.34591 29.0794 4.8526 28.622C4.35929 28.1645 4.05712 27.5375 4.00667 26.8667L4 26.6667V25.3333C4.0001 23.6154 4.66339 21.9638 5.85155 20.723C7.0397 19.4821 8.661 18.7479 10.3773 18.6733L10.6667 18.6667H21.3333ZM16 2.66666C17.7681 2.66666 19.4638 3.36904 20.714 4.61928C21.9643 5.86952 22.6667 7.56521 22.6667 9.33332C22.6667 11.1014 21.9643 12.7971 20.714 14.0474C19.4638 15.2976 17.7681 16 16 16C14.2319 16 12.5362 15.2976 11.286 14.0474C10.0357 12.7971 9.33333 11.1014 9.33333 9.33332C9.33333 7.56521 10.0357 5.86952 11.286 4.61928C12.5362 3.36904 14.2319 2.66666 16 2.66666Z" fill="currentColor"/>
</g>
<defs>
<clipPath id="clip0_72_3759">
<rect width="32" height="32" fill="white"/>
</clipPath>
</defs>
</svg>
