<svg width="20" height="20" viewBox="0 0 20 20" fill="none" xmlns="http://www.w3.org/2000/svg">
<g clip-path="url(#clip0_1689_9251)">
<path d="M17.5001 8.33333V15.8333C17.5001 16.2754 17.3245 16.6993 17.0119 17.0118C16.6994 17.3244 16.2754 17.5 15.8334 17.5H4.16675C3.72472 17.5 3.3008 17.3244 2.98824 17.0118C2.67568 16.6993 2.50008 16.2754 2.50008 15.8333L2.50008 8.33333L17.5001 8.33333ZM11.6667 10.8333L8.33341 10.8333C8.1124 10.8333 7.90044 10.9211 7.74416 11.0774C7.58788 11.2337 7.50008 11.4457 7.50008 11.6667C7.50008 11.8877 7.58788 12.0996 7.74416 12.2559C7.90044 12.4122 8.1124 12.5 8.33341 12.5L11.6667 12.5C11.8878 12.5 12.0997 12.4122 12.256 12.2559C12.4123 12.0996 12.5001 11.8877 12.5001 11.6667C12.5001 11.4457 12.4123 11.2337 12.256 11.0774C12.0997 10.9211 11.8878 10.8333 11.6667 10.8333ZM16.6667 2.5C17.1088 2.5 17.5327 2.67559 17.8453 2.98816C18.1578 3.30072 18.3334 3.72464 18.3334 4.16667V6.66667L1.66675 6.66667L1.66675 4.16667C1.66675 3.72464 1.84234 3.30072 2.1549 2.98816C2.46746 2.67559 2.89139 2.5 3.33341 2.5L16.6667 2.5Z" fill="currentColor"/>
</g>
<defs>
<clipPath id="clip0_1689_9251">
<rect width="20" height="20" fill="white"/>
</clipPath>
</defs>
</svg>
