<svg width="20" height="20" viewBox="0 0 20 20" fill="none" xmlns="http://www.w3.org/2000/svg">
<g clip-path="url(#clip0_1689_9236)">
<path d="M10.0001 1.66663C14.6026 1.66663 18.3334 5.39746 18.3334 9.99996C18.3334 14.6025 14.6026 18.3333 10.0001 18.3333C5.39758 18.3333 1.66675 14.6025 1.66675 9.99996C1.66675 5.39746 5.39758 1.66663 10.0001 1.66663ZM13.3334 9.16663L6.66675 9.16663C6.44573 9.16663 6.23377 9.25442 6.07749 9.4107C5.92121 9.56698 5.83342 9.77895 5.83342 9.99996C5.83342 10.221 5.92121 10.4329 6.07749 10.5892C6.23377 10.7455 6.44573 10.8333 6.66675 10.8333L13.3334 10.8333C13.5544 10.8333 13.7664 10.7455 13.9227 10.5892C14.079 10.4329 14.1667 10.221 14.1667 9.99996C14.1667 9.77895 14.079 9.56698 13.9227 9.4107C13.7664 9.25442 13.5544 9.16663 13.3334 9.16663Z" fill="currentColor"/>
</g>
<defs>
<clipPath id="clip0_1689_9236">
<rect width="20" height="20" fill="white"/>
</clipPath>
</defs>
</svg>
