<svg width="20" height="20" viewBox="0 0 20 20" fill="none" xmlns="http://www.w3.org/2000/svg">
<g clip-path="url(#clip0_1718_11175)">
<path d="M13.9367 2.525C13.6242 2.21254 13.2003 2.03702 12.7584 2.03702C12.3164 2.03702 11.8926 2.21254 11.58 2.525L2.98504 11.12C2.67246 11.4325 2.4968 11.8563 2.4967 12.2983L2.4967 16.6592C2.4967 17.1233 2.8742 17.5008 3.33837 17.5008L16.6667 17.5C16.8877 17.5 17.0997 17.4122 17.256 17.2559C17.4122 17.0996 17.5 16.8877 17.5 16.6667C17.5 16.4456 17.4122 16.2337 17.256 16.0774C17.0997 15.9211 16.8877 15.8333 16.6667 15.8333H10.0567L17.4725 8.41749C17.785 8.10495 17.9605 7.6811 17.9605 7.23916C17.9605 6.79722 17.785 6.37337 17.4725 6.06083L13.9367 2.525Z" fill="#30303B"/>
</g>
<defs>
<clipPath id="clip0_1718_11175">
<rect width="20" height="20" fill="white"/>
</clipPath>
</defs>
</svg>
