<svg width="16" height="16" viewBox="0 0 16 16" fill="none" xmlns="http://www.w3.org/2000/svg">
<g clip-path="url(#clip0_1336_20125)">
<path d="M7.1704 4.11379L11.8837 8.82779L7.10174 13.6105C6.88039 13.8318 6.58822 13.9682 6.2764 13.9958L6.15907 14.0005H2.6704C2.50452 14.0005 2.34448 13.9392 2.22096 13.8285C2.09744 13.7178 2.01914 13.5654 2.00107 13.4005L1.99707 13.3271V9.83846C1.99715 9.52543 2.10736 9.2224 2.3084 8.98246L2.3884 8.89579L7.1704 4.11379ZM9.26374 2.02046C9.49968 1.78449 9.81552 1.64557 10.1489 1.63113C10.4823 1.61669 10.8089 1.72778 11.0644 1.94246L11.1491 2.02046L13.9777 4.84913C14.2135 5.08503 14.3523 5.40074 14.3668 5.73396C14.3812 6.06718 14.2702 6.39371 14.0557 6.64913L13.9777 6.73446L12.8271 7.88513L8.11374 3.17113L9.26374 2.02046Z" fill="currentColor"/>
</g>
<defs>
<clipPath id="clip0_1336_20125">
<rect width="16" height="16" fill="white"/>
</clipPath>
</defs>
</svg>
