<svg width="24" height="24" viewBox="0 0 24 24" fill="none" xmlns="http://www.w3.org/2000/svg">
<path fill-rule="evenodd" clip-rule="evenodd" d="M14.28 2C14.6998 2.00011 15.1088 2.13229 15.4493 2.37781C15.7898 2.62333 16.0444 2.96975 16.177 3.368L16.72 5H20C20.2652 5 20.5196 5.10536 20.7071 5.29289C20.8946 5.48043 21 5.73478 21 6C21 6.26522 20.8946 6.51957 20.7071 6.70711C20.5196 6.89464 20.2652 7 20 7L19.997 7.071L19.13 19.214C19.0759 19.9706 18.7372 20.6786 18.182 21.1956C17.6269 21.7125 16.8965 21.9999 16.138 22H7.862C7.10346 21.9999 6.37311 21.7125 5.81797 21.1956C5.26283 20.6786 4.92411 19.9706 4.87 19.214L4.003 7.07C4.00119 7.04671 4.00019 7.02336 4 7C3.73478 7 3.48043 6.89464 3.29289 6.70711C3.10536 6.51957 3 6.26522 3 6C3 5.73478 3.10536 5.48043 3.29289 5.29289C3.48043 5.10536 3.73478 5 4 5H7.28L7.823 3.368C7.9557 2.96959 8.21043 2.62305 8.5511 2.37752C8.89176 2.13198 9.30107 1.9999 9.721 2L14.28 2ZM9 10C8.75507 10 8.51866 10.09 8.33563 10.2527C8.15259 10.4155 8.03566 10.6397 8.007 10.883L8 11L8 17C8.00028 17.2549 8.09788 17.5 8.27285 17.6854C8.44782 17.8707 8.68695 17.9822 8.94139 17.9972C9.19584 18.0121 9.44638 17.9293 9.64183 17.7657C9.83729 17.6021 9.9629 17.3701 9.993 17.117L10 17L10 11C10 10.7348 9.89464 10.4804 9.70711 10.2929C9.51957 10.1054 9.26522 10 9 10ZM15 10C14.7348 10 14.4804 10.1054 14.2929 10.2929C14.1054 10.4804 14 10.7348 14 11V17C14 17.2652 14.1054 17.5196 14.2929 17.7071C14.4804 17.8946 14.7348 18 15 18C15.2652 18 15.5196 17.8946 15.7071 17.7071C15.8946 17.5196 16 17.2652 16 17V11C16 10.7348 15.8946 10.4804 15.7071 10.2929C15.5196 10.1054 15.2652 10 15 10ZM14.28 4L9.72 4L9.387 5L14.613 5L14.28 4Z" fill="#E63D2C"/>
</svg>
