<svg width="32" height="32" viewBox="0 0 32 32" fill="none" xmlns="http://www.w3.org/2000/svg">
<g clip-path="url(#clip0_1408_5263)">
<path d="M16 0C24.8368 0 32 7.1632 32 16C32 24.8368 24.8368 32 16 32C7.1632 32 0 24.8368 0 16C0 7.1632 7.1632 0 16 0ZM21.656 10.2096L13.736 18.1296L10.344 14.736C10.1954 14.5873 10.0191 14.4694 9.82494 14.3889C9.63081 14.3084 9.42272 14.267 9.21257 14.2669C8.78813 14.2667 8.38103 14.4352 8.0808 14.7352C7.78057 15.0352 7.61183 15.4422 7.61168 15.8666C7.61153 16.2911 7.77999 16.6982 8.08 16.9984L12.4928 21.4112C12.6562 21.5747 12.8503 21.7044 13.0639 21.7929C13.2775 21.8814 13.5064 21.927 13.7376 21.927C13.9688 21.927 14.1977 21.8814 14.4113 21.7929C14.6249 21.7044 14.819 21.5747 14.9824 21.4112L23.92 12.4736C24.2202 12.1734 24.3889 11.7662 24.3889 11.3416C24.3889 10.917 24.2202 10.5098 23.92 10.2096C23.6198 9.90937 23.2126 9.74071 22.788 9.74071C22.3634 9.74071 21.9562 9.90937 21.656 10.2096Z" fill="currentColor"/>
</g>
<defs>
<clipPath id="clip0_1408_5263">
<rect width="32" height="32" fill="white"/>
</clipPath>
</defs>
</svg>
