<svg width="24" height="24" viewBox="0 0 24 24" fill="none" xmlns="http://www.w3.org/2000/svg">
<g clip-path="url(#clip0_1034_19325)">
<path d="M10.2381 4.82702C10.6322 4.82698 11.0224 4.90458 11.3865 5.0554C11.7506 5.20623 12.0815 5.42731 12.3601 5.70602L18.8451 12.191C19.1237 12.4696 19.3447 12.8003 19.4955 13.1644C19.6463 13.5284 19.724 13.9185 19.724 14.3125C19.724 14.7065 19.6463 15.0967 19.4955 15.4607C19.3447 15.8247 19.1237 16.1554 18.8451 16.434L14.6021 20.676C14.0395 21.2384 13.2766 21.5544 12.4811 21.5544C11.6856 21.5544 10.9227 21.2384 10.3601 20.676L3.87409 14.191C3.31181 13.6284 2.996 12.8655 2.99609 12.07V7.32702C2.99609 6.66398 3.25949 6.0281 3.72833 5.55926C4.19717 5.09042 4.83305 4.82702 5.49609 4.82702H10.2381ZM9.65209 9.36302C9.51477 9.21565 9.34917 9.09745 9.16517 9.01546C8.98117 8.93348 8.78254 8.88939 8.58114 8.88584C8.37973 8.88229 8.17967 8.91934 7.9929 8.99478C7.80612 9.07022 7.63645 9.18251 7.49402 9.32495C7.35158 9.46738 7.23929 9.63705 7.16385 9.82383C7.08841 10.0106 7.05136 10.2107 7.05491 10.4121C7.05846 10.6135 7.10255 10.8121 7.18453 10.9961C7.26652 11.1801 7.38472 11.3457 7.53209 11.483C7.81644 11.748 8.19254 11.8922 8.58114 11.8854C8.96974 11.8785 9.34051 11.7211 9.61534 11.4463C9.89016 11.1714 10.0476 10.8007 10.0544 10.4121C10.0613 10.0235 9.91705 9.64737 9.65209 9.36302ZM11.6521 1.99902C12.3794 1.99887 13.0819 2.26291 13.6291 2.74202L13.7741 2.87702L20.9661 10.07C21.1454 10.25 21.2496 10.4915 21.2573 10.7454C21.2651 10.9994 21.1759 11.2467 21.0078 11.4373C20.8398 11.6279 20.6055 11.7473 20.3526 11.7714C20.0997 11.7955 19.8471 11.7224 19.6461 11.567L19.5521 11.484L12.3601 4.29002C12.2045 4.1346 12.0021 4.03479 11.7841 4.00602L11.6521 4.00002H7.00009C6.74366 4.00205 6.49625 3.90548 6.30899 3.73028C6.12172 3.55508 6.00893 3.31463 5.99391 3.05863C5.97889 2.80263 6.06279 2.55064 6.22827 2.35474C6.39376 2.15884 6.62818 2.034 6.88309 2.00602L7.00009 2.00002H11.6521V1.99902Z" fill="#70B309"/>
</g>
<defs>
<clipPath id="clip0_1034_19325">
<rect width="24" height="24" fill="white"/>
</clipPath>
</defs>
</svg>
