<svg width="479" height="175" viewBox="0 0 479 175" xmlns="http://www.w3.org/2000/svg">
<path d="M8.14823e-06 73.7891C24.7309 41.2219 64.0803 34.4014 64.0803 34.4014C97.0581 27.2248 132.433 69.3024 149.521 96.7242C166.609 124.146 182.095 70.2995 214.669 59.3308C247.243 48.3621 256.855 112.679 326.275 122.152C395.696 131.625 479 0 479 0V160.044H8.14823e-06V73.7891Z" fill="#D8E8FC"/>
<path d="M0 88.7455C24.7309 56.1783 64.0803 49.3578 64.0803 49.3578C97.0581 42.1811 132.433 84.2588 149.521 111.681C166.609 139.102 182.095 85.2559 214.669 74.2872C247.243 63.3185 256.855 127.635 326.275 137.108C395.696 146.581 479 14.9564 479 14.9564V175H0V88.7455Z" fill="#95C1F8"/>
</svg>
